<svg width="50.000000" height="55.000000" viewBox="0 0 50 55" fill="none" xmlns="http://www.w3.org/2000/svg" xmlns:xlink="http://www.w3.org/1999/xlink">
	<desc>
			Created with Pixso.
	</desc>
	<defs>
		<clipPath id="clip1_224">
			<rect id="vector" width="50.000000" height="55.000000" fill="white"/>
		</clipPath>
	</defs>
	<g clip-path="url(#clip1_224)">
		<path id="Shape" d="M45.3906 16.7949L43.7566 18.429C40.2162 15.343 35.6766 13.6169 30.9566 13.6169C27.7787 13.6169 24.6025 14.4341 21.8792 15.886L28.7779 8.9873C29.3226 9.34985 29.9575 9.53198 30.5941 9.53198C31.5013 9.53198 32.4102 9.16943 33.1353 8.44263C34.5872 6.99072 34.5872 4.71997 33.1353 3.26807C32.4085 2.54126 31.5013 2.17871 30.5941 2.17871C29.6868 2.17871 28.7779 2.54126 28.0528 3.26807C26.8732 4.53955 26.6911 6.354 27.5081 7.71582L18.7932 16.4307L17.1592 14.7966L12.7115 19.2441L14.3455 20.8782L5.44855 29.7754C4.90381 29.4128 4.26892 29.2307 3.63232 29.2307C2.7251 29.2307 1.81616 29.5933 1.09106 30.3201C-0.36084 31.772 -0.36084 34.0425 1.09106 35.4944C1.81787 36.1294 2.7251 36.4937 3.63232 36.4937C4.53961 36.4937 5.44855 36.1311 6.17365 35.4043C7.35321 34.2246 7.53534 32.4084 6.71832 30.9565L13.617 24.0579C9.98639 31.0486 10.8034 39.7634 16.1583 45.9353L14.5243 47.6597L19.0638 52.1072L23.5115 47.6597L19.0638 43.2119L17.52 44.7556C12.2553 38.582 11.983 29.6868 16.4307 23.1506L17.1575 23.8774L21.697 19.4297L20.88 18.7029C23.7855 16.6145 27.326 15.5251 30.9566 15.5251C35.2238 15.5251 39.217 17.0688 42.4851 19.7922L40.8511 21.3362L45.3906 25.7839L49.8383 21.3362L45.3906 16.7966L45.3906 16.7949ZM29.3226 4.62988C29.6851 4.26733 30.1396 4.08521 30.5941 4.08521C31.0485 4.08521 31.5013 4.26733 31.8655 4.62988C32.5923 5.35669 32.5923 6.44604 31.8655 7.17114C31.503 7.53369 31.0485 7.71582 30.5941 7.71582C30.1396 7.71582 29.6868 7.53369 29.3226 7.17114C28.5958 6.53613 28.5958 5.35498 29.3226 4.62988ZM17.0673 21.3328L15.1609 19.4263L17.0673 17.52L18.9736 19.4263L17.0673 21.3328ZM43.4843 21.3328L45.3906 23.2393L47.2971 21.3328L45.3906 19.4263L43.4843 21.3328ZM3.63068 34.6775C4.08514 34.6775 4.53961 34.4954 4.90216 34.1328L4.90216 34.1311C5.62897 33.4961 5.62897 32.3167 4.90216 31.5898C4.5379 31.2273 4.08514 31.0452 3.63068 31.0452C3.17621 31.0452 2.72174 31.2256 2.35913 31.5898C1.99658 31.9541 1.81445 32.4067 1.81445 32.8613C1.81445 33.406 1.99658 33.8604 2.35913 34.1328C2.72339 34.4954 3.17621 34.6775 3.63068 34.6775ZM19.0638 49.5659L20.9702 47.6597L19.0638 45.7532L17.1575 47.6597L19.0638 49.5659Z" clip-rule="evenodd" fill-rule="evenodd" fill="#333333" fill-opacity="1.000000"/>
	</g>
</svg>
