<svg width="150.000000" height="68.000000" viewBox="0 0 150 68" fill="none" xmlns="http://www.w3.org/2000/svg" xmlns:xlink="http://www.w3.org/1999/xlink">
	<desc>
			Created with Pixso.
	</desc>
	<defs>
		<clipPath id="clip1_8">
			<rect id="footer-logo" width="150.000000" height="68.000000" fill="white"/>
		</clipPath>
	</defs>
	<g clip-path="url(#clip1_8)">
		<path id="Line" d="M0 67L150 67" stroke="#FCBB08" stroke-width="2.000000" stroke-linecap="square"/>
		<path id="OM" d="M48.4209 45.7764Q44.6064 45.7764 41.5479 44.1064Q38.4893 42.4277 36.7402 39.4746Q35 36.5215 35 32.8828Q35 29.2529 36.7402 26.2998Q38.4893 23.3467 41.5479 21.6768Q44.6064 19.998 48.4209 19.998Q52.2002 19.998 55.2588 21.6768Q58.3262 23.3467 60.0488 26.2822Q61.7803 29.2178 61.7803 32.8828Q61.7803 36.5566 60.0488 39.4922Q58.3262 42.4277 55.2588 44.1064Q52.2002 45.7764 48.4209 45.7764ZM48.4209 42.5684Q51.1982 42.5684 53.4131 41.3115Q55.6279 40.0547 56.9023 37.8398Q58.1768 35.625 58.1768 32.8828Q58.1768 30.1494 56.9023 27.9346Q55.6279 25.7197 53.4131 24.4629Q51.1982 23.2061 48.4209 23.2061Q45.6523 23.2061 43.4023 24.4629Q41.1523 25.7197 39.8691 27.9346Q38.5947 30.1494 38.5947 32.8828Q38.5947 35.625 39.8691 37.8398Q41.1523 40.0547 43.4023 41.3115Q45.6523 42.5684 48.4209 42.5684ZM90.6492 45.4863L90.614 27.126L81.5086 42.4277L79.8562 42.4277L70.742 27.2314L70.742 45.4863L67.2878 45.4863L67.2878 20.2881L70.241 20.2881L80.7527 37.998L91.1238 20.2881L94.0681 20.2881L94.1121 45.4863L90.6492 45.4863Z" fill-rule="evenodd" fill="#FFFFFF"/>
		<path id="Vector" d="M111.678 19.6294L110.265 19.1973C110.069 19.1372 109.862 19.1934 109.729 19.3428C109.386 19.7305 109.009 20.0991 108.609 20.438C105.645 22.9531 101.925 23.812 97.85 22.9229C93.7957 22.0381 91.9322 19.6914 89.3531 16.4438C89.1686 16.2114 88.981 15.9751 88.7891 15.7354C88.7673 15.708 88.7416 15.6719 88.7144 15.6338C88.6428 15.5337 88.5536 15.4092 88.4281 15.2866C88.2576 15.1196 88.0719 14.9644 87.8761 14.8247C87.4715 14.5356 87.2018 14.0815 87.1361 13.5781L86.7024 10.2563C86.6836 10.1123 86.6098 9.979 86.4971 9.88623C86.3846 9.79297 86.2423 9.74756 86.1017 9.76025L83.9617 9.94824C83.6692 9.97412 83.4637 10.2378 83.5027 10.5376L83.9187 13.7241C83.9642 14.0728 83.8514 14.4277 83.6092 14.6973C83.2393 15.1089 83.0509 15.6172 83.0642 16.167C83.2326 23.1157 87.8916 28.2588 95.5271 29.9248C98.8224 30.644 102.327 30.2139 105.394 28.7144C106.012 28.4121 106.596 28.0742 107.144 27.7026C107.909 27.1841 108.603 26.5991 109.222 25.9531C110.326 24.7988 111.13 23.5059 111.609 22.1104C111.814 21.5117 111.971 20.8911 112.074 20.2656C112.12 19.9883 111.948 19.7119 111.678 19.6294ZM84.6332 10.9868L85.7136 10.8921L86.0011 13.0938L85.5648 13.1045L84.9117 13.1206L84.6332 10.9868ZM106.531 26.7866C103.561 28.8013 99.5296 29.6953 95.7032 28.8604C88.613 27.313 84.2877 22.5771 84.1329 16.1914C84.1245 15.8481 84.2808 15.6006 84.4132 15.4531C84.728 15.1025 84.9232 14.668 84.9802 14.2095L86.1886 14.1802C86.3811 14.7935 86.7672 15.3335 87.2911 15.707C87.4387 15.8125 87.5786 15.9292 87.7067 16.0547C87.7595 16.1064 87.8063 16.1719 87.8607 16.248C87.8956 16.2969 87.9317 16.3472 87.9729 16.3989C88.1639 16.6377 88.3508 16.873 88.5345 17.1045C91.1583 20.4087 93.2307 23.0181 97.6737 23.9878C99.9004 24.4736 102.05 24.4722 104.061 23.9839C105.886 23.541 107.566 22.707 109.057 21.5024L109.093 21.52L109.285 21.6138C108.515 22.8086 107.534 23.8042 106.397 24.5747C103.901 26.2681 100.662 26.8784 97.3163 26.1484C92.1068 25.0117 88.3962 22.208 86.8678 18.2539C86.758 17.9697 86.4468 17.8193 86.1728 17.918C85.8987 18.0166 85.7657 18.3267 85.8755 18.6108C87.548 22.938 91.5485 25.9932 97.1401 27.2134C99.8685 27.8086 102.578 27.5918 104.976 26.5864C105.705 26.2808 106.39 25.9097 107.027 25.4775C108.334 24.5908 109.435 23.4487 110.278 22.0986L110.424 22.1704C109.669 24.0166 108.285 25.5972 106.531 26.7866ZM110.771 21.1538L110.552 21.0474L109.921 20.7393C110.057 20.6074 110.189 20.4727 110.318 20.3354L110.927 20.522C110.882 20.7344 110.829 20.9453 110.771 21.1538Z" fill-rule="nonzero" fill="#FFFFFF"/>
	</g>
</svg>
