<svg width="80.554291" height="59.997559" viewBox="0 0 80.5543 59.9976" fill="none" xmlns="http://www.w3.org/2000/svg" xmlns:xlink="http://www.w3.org/1999/xlink">
	<desc>
			Created with Pixso.
	</desc>
	<defs/>
	<path id="OM" d="M13.4209 49.7759Q9.60645 49.7759 6.54785 48.106Q3.48926 46.4272 1.74023 43.4741Q0 40.521 0 36.8823Q0 33.2524 1.74023 30.2993Q3.48926 27.3462 6.54785 25.6763Q9.60645 23.9976 13.4209 23.9976Q17.2002 23.9976 20.2588 25.6763Q23.3262 27.3462 25.0488 30.2817Q26.7803 33.2173 26.7803 36.8823Q26.7803 40.5562 25.0488 43.4917Q23.3262 46.4272 20.2588 48.106Q17.2002 49.7759 13.4209 49.7759ZM13.4209 46.5679Q16.1982 46.5679 18.4131 45.311Q20.6279 44.0542 21.9023 41.8394Q23.1768 39.6245 23.1768 36.8823Q23.1768 34.1489 21.9023 31.9341Q20.6279 29.7192 18.4131 28.4624Q16.1982 27.2056 13.4209 27.2056Q10.6523 27.2056 8.40234 28.4624Q6.15234 29.7192 4.86914 31.9341Q3.59473 34.1489 3.59473 36.8823Q3.59473 39.6245 4.86914 41.8394Q6.15234 44.0542 8.40234 45.311Q10.6523 46.5679 13.4209 46.5679ZM55.6492 49.4858L55.614 31.1255L46.5086 46.4272L44.8562 46.4272L35.742 31.231L35.742 49.4858L32.2878 49.4858L32.2878 24.2876L35.241 24.2876L45.7527 41.9976L56.1238 24.2876L59.0681 24.2876L59.1121 49.4858L55.6492 49.4858Z" fill-rule="evenodd" fill="#333333"/>
	<path id="Vector" d="M78.1295 19.6299L76.716 19.1978C76.52 19.1377 76.313 19.1938 76.1806 19.3433C75.8372 19.731 75.4604 20.0996 75.0605 20.4385C72.0963 22.9536 68.3758 23.8125 64.3011 22.9233C60.2468 22.0386 58.3834 19.6919 55.8042 16.4443C55.6198 16.2119 55.4321 15.9756 55.2403 15.7358C55.2184 15.7085 55.1928 15.6724 55.1655 15.6343C55.0939 15.5342 55.0048 15.4097 54.8793 15.2871C54.7088 15.1201 54.5231 14.9648 54.3273 14.8252C53.9227 14.5361 53.653 14.082 53.5872 13.5786L53.1536 10.2568C53.1348 10.1128 53.061 9.97949 52.9483 9.88672C52.8358 9.79346 52.6935 9.74805 52.5529 9.76074L50.4129 9.94873C50.1204 9.97461 49.9149 10.2383 49.9539 10.5381L50.3698 13.7246C50.4153 14.0732 50.3026 14.4282 50.0604 14.6978C49.6905 15.1094 49.502 15.6177 49.5154 16.1675C49.6838 23.1162 54.3428 28.2593 61.9782 29.9253C65.2736 30.6445 68.7777 30.2144 71.8453 28.7148C72.4627 28.4126 73.0469 28.0747 73.5952 27.7031C74.3597 27.1846 75.0546 26.5996 75.6727 25.9536C76.7776 24.7993 77.5807 23.5063 78.0599 22.1108C78.2654 21.5122 78.4221 20.8916 78.5256 20.2661C78.5714 19.9888 78.3992 19.7124 78.1295 19.6299ZM51.0844 10.9873L52.1648 10.8926L52.4523 13.0942L52.0159 13.105L51.3629 13.1211L51.0844 10.9873ZM72.9825 26.7871C70.012 28.8018 65.9808 29.6958 62.1544 28.8608C55.0641 27.3135 50.7388 22.5776 50.5841 16.1919C50.5757 15.8486 50.7319 15.6011 50.8644 15.4536C51.1791 15.103 51.3743 14.6685 51.4313 14.21L52.6398 14.1807C52.8323 14.7939 53.2183 15.334 53.7423 15.7075C53.8899 15.813 54.0297 15.9297 54.1579 16.0552C54.2106 16.1069 54.2575 16.1724 54.3119 16.2485C54.3468 16.2974 54.3828 16.3477 54.424 16.3994C54.6151 16.6382 54.8019 16.8735 54.9857 17.105C57.6095 20.4092 59.6819 23.0186 64.1249 23.9883C66.3516 24.4741 68.5007 24.4727 70.5125 23.9844C72.3376 23.5415 74.0167 22.7075 75.5086 21.5029L75.5445 21.5205L75.736 21.6143C74.9665 22.8091 73.9849 23.8047 72.8486 24.5752C70.3517 26.2686 67.1132 26.8789 63.7675 26.1489C58.558 25.0122 54.8474 22.2085 53.319 18.2544C53.2092 17.9702 52.898 17.8198 52.624 17.9185C52.3499 18.0171 52.2169 18.3271 52.3267 18.6113C53.9992 22.9385 57.9997 25.9937 63.5912 27.2139C66.3197 27.8091 69.0294 27.5923 71.4276 26.5869C72.156 26.2812 72.8414 25.9102 73.4784 25.478C74.7854 24.5913 75.8865 23.4492 76.7287 22.0991L76.8752 22.1709C76.1205 24.0171 74.7366 25.5977 72.9825 26.7871ZM77.2218 21.1543L77.0033 21.0479L76.3725 20.7397C76.508 20.6079 76.6402 20.4731 76.7687 20.3359L77.3785 20.5225C77.3329 20.7349 77.2806 20.9458 77.2218 21.1543Z" fill-rule="nonzero" fill="#000000"/>
</svg>
