<svg width="50.000000" height="50.000000" viewBox="0 0 50 50" fill="none" xmlns="http://www.w3.org/2000/svg" xmlns:xlink="http://www.w3.org/1999/xlink">
	<desc>
			Created with Pixso.
	</desc>
	<defs>
		<clipPath id="clip1_242">
			<rect id="speaker copy" width="50.000000" height="50.000000" fill="white"/>
		</clipPath>
	</defs>
	<g clip-path="url(#clip1_242)">
		<path id="Shape" d="M0.557434 30.3223L0.557434 18.8799L19.5945 18.8799L31.6087 8.92603L31.6087 39.9834L19.6696 30.3223L7.09576 30.3223L7.09576 40.1306L5.46156 40.1306L5.46156 30.3223L0.557434 30.3223ZM29.973 12.4028L20.6369 20.1384L20.6354 20.1401L20.1816 20.5156L10.3642 20.5156L10.3642 28.6882L20.2475 28.6882L29.973 36.5571L29.973 12.4028ZM2.19316 28.6865L2.19316 20.5142L8.73149 20.5142L8.73149 28.6865L2.19316 28.6865Z" clip-rule="evenodd" fill-rule="evenodd" fill="#333333" fill-opacity="1.000000"/>
		<path id="Shape" d="M42.9209 10.3669L41.745 11.5427C45.5699 14.5369 48.0427 19.1848 48.0427 24.408C48.0427 29.7703 45.435 34.5242 41.4338 37.5059L42.6173 38.6895C46.9082 35.4043 49.6784 30.2302 49.6784 24.408C49.6784 18.7266 47.0385 13.6614 42.9224 10.3669L42.9209 10.3669Z" fill-rule="evenodd" fill="#333333"/>
		<path id="Shape" d="M37.6687 15.6367L36.4806 16.8247C39.004 18.4192 40.6888 21.2246 40.6888 24.4241C40.6888 27.7644 38.8538 30.6787 36.1418 32.2285L37.333 33.4197C40.327 31.5403 42.3245 28.2197 42.3245 24.4241C42.3245 20.7693 40.4788 17.5483 37.6703 15.6367L37.6687 15.6367Z" fill-rule="evenodd" fill="#333333"/>
	</g>
</svg>
